name analog
datacolumns 19
datarows 51
range 0.0 0.025
endheader
time	ground_force_vx	ground_force_vy	ground_force_vz	ground_force_px	ground_force_py	ground_force_pz	l_ground_force_vx	l_ground_force_vy	l_ground_force_vz	l_ground_force_px	l_ground_force_py	l_ground_force_pz	ground_torque_x	ground_torque_y	ground_torque_z	l_ground_torque_x	l_ground_torque_y	l_ground_torque_z
0.0	-0.0	-0.0	-0.0	6.878228187561035	29.983423233032227	-317.7913818359375	17.298603057861328	-55.79268264770508	-472.191650390625	-0.0	-0.0	-0.0	-0.0	-0.0	-0.0	114699.3125	-45658.92578125	6939.5166015625
0.0005	-0.0	-0.0	-0.0	3.274136543273926	31.40903663635254	-317.68463134765625	17.795482635498047	-54.62688446044922	-468.9805908203125	-0.0	-0.0	-0.0	-0.0	-0.0	-0.0	113523.5859375	-44143.203125	6937.19384765625
0.001	-0.0	-0.0	-0.0	0.6871448159217834	34.00288009643555	-317.72186279296875	18.052749633789062	-53.081336975097656	-468.2471618652344	-0.0	-0.0	-0.0	-0.0	-0.0	-0.0	112691.6953125	-42704.05859375	6691.59130859375
0.0015	-0.0	-0.0	-0.0	-1.6421473026275637	35.28683853149414	-318.7820129394531	14.992705345153809	-52.68417739868164	-470.8668212890625	-0.0	-0.0	-0.0	-0.0	-0.0	-0.0	111978.3515625	-41878.06640625	5787.857421875
0.002	-0.0	-0.0	-0.0	-4.058385848999023	35.08967208862305	-322.4935302734375	11.914448738098145	-51.88857269287109	-468.1777648925781	-0.0	-0.0	-0.0	-0.0	-0.0	-0.0	111450.6953125	-40507.2578125	4830.814453125
0.0025	-0.0	-0.0	-0.0	-7.198054790496826	35.3568000793457	-321.0682067871094	9.84689712524414	-51.297481536865234	-466.1863098144531	-0.0	-0.0	-0.0	-0.0	-0.0	-0.0	110399.4765625	-39482.46875	4072.98291015625
0.003	-0.0	-0.0	-0.0	-9.67827033996582	36.747825622558594	-325.84722900390625	9.076228141784668	-50.043704986572266	-463.3584899902344	-0.0	-0.0	-0.0	-0.0	-0.0	-0.0	109648.4296875	-38256.61328125	3719.760498046875
0.0035	-0.0	-0.0	-0.0	-11.597366333007812	38.38917541503906	-326.9758605957031	7.256913185119629	-49.47929000854492	-463.70751953125	-0.0	-0.0	-0.0	-0.0	-0.0	-0.0	109412.953125	-37502.796875	3107.3173828125
0.004	-0.0	-0.0	-0.0	-12.946910858154297	39.51932907104492	-325.7688293457031	5.97179651260376	-48.374454498291016	-463.57122802734375	-0.0	-0.0	-0.0	-0.0	-0.0	-0.0	108995.9609375	-36438.90234375	2650.15625
0.0045000000000000005	-0.0	-0.0	-0.0	-12.319660186767578	39.99374771118164	-328.17236328125	4.481196880340576	-47.57707595825195	-461.5784301757813	-0.0	-0.0	-0.0	-0.0	-0.0	-0.0	108309.6484375	-35673.515625	2168.96533203125
0.005	-0.0	-0.0	-0.0	-11.48578643798828	40.29551696777344	-330.18927001953125	3.5856118202209477	-47.5683708190918	-458.78521728515625	-0.0	-0.0	-0.0	-0.0	-0.0	-0.0	107084.84375	-34682.35546875	1815.27880859375
0.0055	-0.0	-0.0	-0.0	-10.12727165222168	40.125755310058594	-332.7631530761719	2.45824933052063	-47.878868103027344	-455.293701171875	-0.0	-0.0	-0.0	-0.0	-0.0	-0.0	106137.0234375	-33914.4453125	1383.796875
0.006	-0.0	-0.0	-0.0	-9.502985954284668	39.59527206420898	-334.7472229003906	1.685504913330078	-47.32347106933594	-451.3860473632813	-0.0	-0.0	-0.0	-0.0	-0.0	-0.0	104745.265625	-32916.82421875	1116.4119873046875
0.006500000000000001	-0.0	-0.0	-0.0	-8.407230377197266	40.18935012817383	-335.65509033203125	1.499606370925903	-46.676048278808594	-447.1965026855469	-0.0	-0.0	-0.0	-0.0	-0.0	-0.0	103279.5859375	-31834.150390625	893.3051147460938
0.007	-0.0	-0.0	-0.0	-8.182035446166992	40.0195541381836	-338.8667297363281	1.1363403797149658	-46.74741363525391	-442.6909790039063	-0.0	-0.0	-0.0	-0.0	-0.0	-0.0	101708.59375	-30866.525390625	902.868408203125
0.0075	-0.0	-0.0	-0.0	-7.460058212280273	40.1726188659668	-338.5127868652344	0.9505813717842102	-47.33205032348633	-437.1709289550781	-0.0	-0.0	-0.0	-0.0	-0.0	-0.0	100668.28125	-29656.68359375	724.6286010742188
0.008	-0.0	-0.0	-0.0	-7.072735786437988	39.50701141357422	-337.9713134765625	0.5155148506164551	-47.35710144042969	-433.6792602539063	-0.0	-0.0	-0.0	-0.0	-0.0	-0.0	99076.6796875	-28756.462890625	694.6738891601562
0.0085	-0.0	-0.0	-0.0	-6.618261814117432	39.39563751220703	-339.9801940917969	0.0720133632421493	-47.94205474853516	-428.8773498535156	-0.0	-0.0	-0.0	-0.0	-0.0	-0.0	97323.2578125	-28078.71484375	476.4572448730469
0.009000000000000001	-0.0	-0.0	-0.0	-5.854676246643066	38.771728515625	-340.1123046875	-0.1302669048309326	-48.09394836425781	-421.426025390625	-0.0	-0.0	-0.0	-0.0	-0.0	-0.0	95682.296875	-27097.513671875	537.4122924804688
0.0095	-0.0	-0.0	-0.0	-5.336097240447998	38.56043243408203	-339.43865966796875	-0.9036552906036376	-47.87035369873047	-416.8218994140625	-0.0	-0.0	-0.0	-0.0	-0.0	-0.0	93915.109375	-25905.185546875	307.9693603515625
0.01	-0.0	-0.0	-0.0	-4.168172359466553	38.83615493774414	-338.2811279296875	-1.2501987218856812	-47.79024887084961	-410.634765625	-0.0	-0.0	-0.0	-0.0	-0.0	-0.0	92644.3203125	-25127.681640625	94.59647369384766
0.0105	-0.0	-0.0	-0.0	-2.376892566680908	38.89262008666992	-335.5209350585937	-0.9363691210746764	-47.58904266357422	-404.3498840332031	-0.0	-0.0	-0.0	-0.0	-0.0	-0.0	90943.1640625	-24354.48828125	-45.16301727294922
0.011	-0.0	-0.0	-0.0	-1.978356122970581	39.014644622802734	-334.6529541015625	-1.4275453090667725	-46.98713684082031	-399.3972778320313	-0.0	-0.0	-0.0	-0.0	-0.0	-0.0	89220.515625	-23542.6015625	-137.07192993164062
0.0115	-0.0	-0.0	-0.0	-1.3785347938537598	38.85272216796875	-332.63104248046875	-1.588647484779358	-46.40133285522461	-395.0472412109375	-0.0	-0.0	-0.0	-0.0	-0.0	-0.0	87840.46875	-23166.169921875	-107.35626220703124
0.012	-0.0	-0.0	-0.0	-0.6083685159683228	38.50433349609375	-331.4110717773437	-1.572466492652893	-45.7905158996582	-388.510009765625	-0.0	-0.0	-0.0	-0.0	-0.0	-0.0	86625.9765625	-22701.705078125	-252.7730712890625
0.0125	-0.0	-0.0	-0.0	0.6567275524139404	38.723392486572266	-329.4849853515625	-1.556435465812683	-45.02798843383789	-384.9554138183594	-0.0	-0.0	-0.0	-0.0	-0.0	-0.0	85771.1640625	-21882.212890625	-249.8563690185547
0.013000000000000001	-0.0	-0.0	-0.0	1.8083336353302	38.228912353515625	-326.98095703125	-0.8790583610534668	-43.77549743652344	-380.4168395996094	-0.0	-0.0	-0.0	-0.0	-0.0	-0.0	84390.4375	-21480.984375	-165.44772338867188
0.0135	-0.0	-0.0	-0.0	2.4818873405456543	38.14781188964844	-326.5647277832031	-0.6375780701637268	-43.59103012084961	-375.4641418457031	-0.0	-0.0	-0.0	-0.0	-0.0	-0.0	83722.6484375	-21432.087890625	-246.1587371826172
0.014	-0.0	-0.0	-0.0	3.3087546825408936	38.22102737426758	-326.6283874511719	0.0478472076356411	-42.98090744018555	-375.2438354492188	-0.0	-0.0	-0.0	-0.0	-0.0	-0.0	82788.359375	-20949.9296875	-51.21359634399414
0.0145	-0.0	-0.0	-0.0	3.925262451171875	38.92622375488281	-324.7293395996094	0.4276777803897857	-42.337703704833984	-372.4198303222656	-0.0	-0.0	-0.0	-0.0	-0.0	-0.0	82379.3515625	-20775.998046875	-85.70418548583984
0.015	-0.0	-0.0	-0.0	4.371315002441406	39.15982818603516	-323.86602783203125	0.1536884605884552	-42.1215705871582	-369.7515869140625	-0.0	-0.0	-0.0	-0.0	-0.0	-0.0	81585.2109375	-20331.599609375	-185.92843627929688
0.0155	-0.0	-0.0	-0.0	4.26637601852417	38.99713134765625	-325.1853332519531	-0.4850234389305115	-41.89009094238281	-368.2929992675781	-0.0	-0.0	-0.0	-0.0	-0.0	-0.0	80946.5	-19949.681640625	-177.735107421875
0.016	-0.0	-0.0	-0.0	4.833020687103272	39.85693359375	-325.63189697265625	-0.5165926218032837	-41.96060562133789	-364.8634643554688	-0.0	-0.0	-0.0	-0.0	-0.0	-0.0	80907.109375	-19957.412109375	-258.8189392089844
0.0165	-0.0	-0.0	-0.0	5.135207176208496	40.05072784423828	-327.4595947265625	-0.7827766537666321	-41.687835693359375	-364.7097778320313	-0.0	-0.0	-0.0	-0.0	-0.0	-0.0	80249.296875	-19559.8125	-504.9874877929688
0.017	-0.0	-0.0	-0.0	5.1160502433776855	40.36449813842773	-328.4880676269531	-0.6785954833030701	-41.614994049072266	-363.4056701660156	-0.0	-0.0	-0.0	-0.0	-0.0	-0.0	79702.3203125	-19253.30078125	-434.146728515625
0.0175	-0.0	-0.0	-0.0	5.554226875305176	40.511512756347656	-329.1636962890625	-0.636445939540863	-41.34225082397461	-360.5823059082031	-0.0	-0.0	-0.0	-0.0	-0.0	-0.0	79699.2890625	-19125.22265625	-523.001953125
0.018000000000000002	-0.0	-0.0	-0.0	5.531051635742188	41.81436920166016	-330.83819580078125	-0.998946249485016	-41.6148681640625	-361.18988037109375	-0.0	-0.0	-0.0	-0.0	-0.0	-0.0	79301.5390625	-18720.228515625	-350.4744873046875
0.0185	-0.0	-0.0	-0.0	5.844650745391846	41.31330490112305	-331.3131103515625	-0.9024512767791748	-41.430511474609375	-361.0227661132813	-0.0	-0.0	-0.0	-0.0	-0.0	-0.0	78863.515625	-18727.7109375	-480.65911865234375
0.019	-0.0	-0.0	-0.0	6.259982585906982	41.534767150878906	-331.9891357421875	-0.8212997317314148	-41.73055648803711	-359.397216796875	-0.0	-0.0	-0.0	-0.0	-0.0	-0.0	78916.5703125	-18491.044921875	-515.4723510742188
0.0195	-0.0	-0.0	-0.0	6.259930610656738	41.37168884277344	-334.7544250488281	-1.2419509887695312	-41.591941833496094	-358.9577941894531	-0.0	-0.0	-0.0	-0.0	-0.0	-0.0	78480.5390625	-18238.587890625	-493.70458984375
0.02	-0.0	-0.0	-0.0	6.445835590362549	41.03925704956055	-337.3467102050781	-1.153240203857422	-41.75354766845703	-358.0890197753906	-0.0	-0.0	-0.0	-0.0	-0.0	-0.0	78483.1953125	-17836.654296875	-675.9774780273438
0.0205	-0.0	-0.0	-0.0	6.905766010284424	41.55731201171875	-337.6697998046875	-1.5231497287750244	-41.76116180419922	-359.0168151855469	-0.0	-0.0	-0.0	-0.0	-0.0	-0.0	78208.9921875	-17730.625	-856.83349609375
0.021	-0.0	-0.0	-0.0	6.6682891845703125	41.93546676635742	-338.99334716796875	-2.298969268798828	-41.7985954284668	-358.7265319824219	-0.0	-0.0	-0.0	-0.0	-0.0	-0.0	78331.7421875	-17313.16015625	-842.844970703125
0.021500000000000002	-0.0	-0.0	-0.0	7.062221527099609	42.03973007202149	-343.2022705078125	-2.8826146125793457	-41.6069564819336	-358.6669616699219	-0.0	-0.0	-0.0	-0.0	-0.0	-0.0	77661.7734375	-17122.560546875	-929.7044067382812
0.022	-0.0	-0.0	-0.0	6.713060855865479	41.83924865722656	-344.0560302734375	-3.186152219772339	-41.43768310546875	-358.810791015625	-0.0	-0.0	-0.0	-0.0	-0.0	-0.0	77558.6015625	-17003.41015625	-1112.84716796875
0.0225	-0.0	-0.0	-0.0	7.114678382873535	41.72040939331055	-346.96893310546875	-2.9644534587860107	-41.48908996582031	-356.68768310546875	-0.0	-0.0	-0.0	-0.0	-0.0	-0.0	77438.8359375	-16637.8515625	-1424.1488037109375
0.023	-0.0	-0.0	-0.0	7.300540924072266	41.82422256469727	-348.6177673339844	-3.7111079692840576	-40.81195831298828	-357.7643737792969	-0.0	-0.0	-0.0	-0.0	-0.0	-0.0	77308.609375	-16441.39453125	-1308.3621826171875
0.0235	-0.0	-0.0	-0.0	6.914483547210693	41.83874130249024	-351.08984375	-3.917944669723511	-40.6724853515625	-355.20269775390625	-0.0	-0.0	-0.0	-0.0	-0.0	-0.0	77464.359375	-16128.59765625	-1377.6629638671875
0.024	-0.0	-0.0	-0.0	6.616147518157959	42.10594177246094	-354.239501953125	-4.236225128173828	-39.97952651977539	-355.72808837890625	-0.0	-0.0	-0.0	-0.0	-0.0	-0.0	76859.59375	-15811.3603515625	-1481.346923828125
0.0245	-0.0	-0.0	-0.0	6.698047161102295	42.47894287109375	-354.440673828125	-4.279932975769043	-40.08356475830078	-355.1158447265625	-0.0	-0.0	-0.0	-0.0	-0.0	-0.0	76551.0703125	-15601.201171875	-1649.6104736328125
0.025	-0.0	-0.0	-0.0	5.984325408935547	42.05978393554688	-359.451416015625	-4.982272624969482	-39.74475860595703	-354.6241455078125	-0.0	-0.0	-0.0	-0.0	-0.0	-0.0	76333.890625	-15368.375	-1872.7967529296875
